<svg width="14" height="14" viewBox="0 0 14 14" fill="none" xmlns="http://www.w3.org/2000/svg">
<path id="Vector" d="M4.74587 9.7311C4.85787 9.86586 5.05738 9.86936 5.16763 9.73285C5.72239 9.04857 6.28239 8.35904 6.84065 7.66776C8.72893 5.3279 10.6137 2.98804 12.5002 0.648187C12.677 0.429427 12.8765 0.240418 13.1215 0.103912C13.3595 -0.0273438 13.6045 -0.0483453 13.8215 0.123163C14.0088 0.271919 14.0175 0.50118 13.986 0.71994C13.9458 1.00695 13.839 1.27997 13.685 1.52498C11.235 5.43815 8.78843 9.35133 6.3314 13.2593C5.76439 14.1623 4.61987 14.2568 3.93036 13.4483C2.74034 12.0552 1.56957 10.6446 0.407557 9.22708C-0.185702 8.50429 -0.1192 7.60125 0.528309 7.02898C1.17757 6.45495 2.07358 6.54946 2.68784 7.27224C3.3791 8.08602 4.05811 8.90856 4.74412 9.7276C4.74412 9.7311 4.74587 9.7311 4.74587 9.7311Z" fill="#9E9E9E"/>
</svg>
