<svg width="56" height="56" viewBox="0 0 56 56" fill="none" xmlns="http://www.w3.org/2000/svg">
<g id="Group 1171274601">
<circle id="Bg" cx="28" cy="28" r="27.5" fill="#F5F6FA" stroke="black"/>
<g id="7-Check">
<path id="Vector" d="M19.5971 27.1025C19.1795 27.1037 18.7707 27.2231 18.4181 27.4469C18.0655 27.6707 17.7835 27.9897 17.6047 28.3671C17.4258 28.7445 17.3575 29.1648 17.4076 29.5794C17.4576 29.994 17.6241 30.386 17.8876 30.7099L23.5056 37.592C23.7059 37.8407 23.9627 38.038 24.2546 38.1676C24.5465 38.2972 24.8651 38.3552 25.1839 38.3369C25.8658 38.3003 26.4814 37.9355 26.874 37.3358L38.544 18.5412C38.5459 18.5381 38.5479 18.5349 38.55 18.5319C38.6595 18.3637 38.624 18.0306 38.3979 17.8212C38.3358 17.7638 38.2627 17.7196 38.1829 17.6915C38.1031 17.6634 38.0183 17.6519 37.9339 17.6577C37.8495 17.6636 37.7672 17.6867 37.6921 17.7255C37.6169 17.7644 37.5505 17.8182 37.497 17.8837C37.4928 17.8889 37.4884 17.894 37.484 17.899L25.7146 31.1966C25.6698 31.2472 25.6154 31.2884 25.5546 31.3178C25.4938 31.3472 25.4277 31.3643 25.3602 31.3679C25.2927 31.3716 25.2252 31.3618 25.1615 31.3391C25.0979 31.3164 25.0394 31.2813 24.9894 31.2358L21.0833 27.6813C20.6777 27.3094 20.1474 27.103 19.5971 27.1025V27.1025Z" fill="black"/>
</g>
</g>
</svg>
