<svg width="44" height="44" viewBox="0 0 44 44" fill="none" xmlns="http://www.w3.org/2000/svg">
<g id="Group 1171279704">
<circle id="Ellipse 294" cx="22" cy="22" r="22" fill="white"/>
<path id="Subtract (Stroke)" fill-rule="evenodd" clip-rule="evenodd" d="M22 11.5101L13.4493 17.3716V28.5202H18.9565V23.6414C18.9565 21.9251 20.3191 20.5338 22 20.5338C23.6809 20.5338 25.0435 21.9251 25.0435 23.6414V28.5202H30.5507V17.3716L22 11.5101ZM21.273 10.2261C21.7127 9.92464 22.2873 9.92464 22.727 10.2261L31.4227 16.1869C31.7835 16.4343 32 16.8489 32 17.2927V28.6682C32 29.4037 31.416 30 30.6957 30H24.8986C24.1782 30 23.5942 29.4037 23.5942 28.6682V23.6414C23.5942 22.7424 22.8805 22.0136 22 22.0136C21.1195 22.0136 20.4058 22.7424 20.4058 23.6414V28.6682C20.4058 29.4037 19.8218 30 19.1014 30H13.3043C12.584 30 12 29.4037 12 28.6682V17.2927C12 16.8489 12.2165 16.4343 12.5773 16.1869L21.273 10.2261Z" fill="#BBBBBB"/>
</g>
</svg>
