<svg width="60" height="60" viewBox="0 0 60 60" fill="none" xmlns="http://www.w3.org/2000/svg">
<g id="icon-erro">
<circle id="Ellipse 2528" cx="30" cy="30" r="28.5" stroke="#0085FE" stroke-width="3"/>
<path id="Union" fill-rule="evenodd" clip-rule="evenodd" d="M28.2528 34.4269H31.7467C32.439 34.4269 33 33.8323 33 33.0985V16.3284C33 15.5947 32.4386 15 31.7468 15H28.2528C27.5609 15 27 15.5947 27 16.3284V33.0985C27 33.8323 27.5609 34.4269 28.2528 34.4269ZM27 41.8198C27 43.5759 28.3431 45 29.9998 45C31.6565 45 33 43.5759 33 41.8198V41.8189C33 40.0628 31.6565 38.6387 29.9998 38.6387C28.3431 38.6387 27 40.0628 27 41.8189V41.8198Z" fill="#0085FE"/>
</g>
</svg>
