<svg width="97" height="16" viewBox="0 0 97 16" fill="none" xmlns="http://www.w3.org/2000/svg">
<g id="logo_symbol" clip-path="url(#clip0_358_480)">
<g id="symbol-sep">
<path id="Vector" d="M7.47471 12.4805H1.45752C2.78658 14.2936 4.90258 15.4675 7.28672 15.4675C8.42779 15.4675 9.50765 15.1972 10.4709 14.7177C9.08503 14.6774 7.91482 13.7559 7.47471 12.4805Z" fill="#262628"/>
<path id="Vector_2" d="M13.9654 5.01275C12.8404 2.37521 10.2741 0.532227 7.28662 0.532227V5.01275H13.9654Z" fill="#262628"/>
<g id="Group">
<path id="Vector_3" d="M13.9653 5.01275H7.2865V0.532227H0V7.99976C0 9.68145 0.542116 11.2317 1.4573 12.4803H7.47449C7.35354 12.1293 7.2865 11.7529 7.2865 11.3601C7.2865 9.50372 8.754 7.99976 10.5654 7.99976C12.3768 7.99976 13.7919 9.45145 13.8414 11.2631C14.3092 10.2774 14.573 9.17067 14.573 8.00125C14.573 6.93788 14.3544 5.92827 13.9653 5.01424V5.01275Z" fill="#0085FE"/>
<path id="Vector_4" d="M10.5655 8C8.75412 8 7.28662 9.50396 7.28662 11.3604C7.28662 11.7532 7.35366 12.1295 7.47461 12.4805C7.91472 13.756 9.08493 14.6775 10.4708 14.7178C11.5172 14.1966 12.4236 13.4244 13.1173 12.4805C13.3956 12.1012 13.639 11.6934 13.843 11.2633C13.792 9.45318 12.3449 8 10.567 8H10.5655Z" fill="#0A4ED2"/>
</g>
</g>
<g id="logo">
<path id="Vector_5" d="M22.8071 11.6381V2.02588H20.4026V13.9739H22.2548H22.8071H27.5987V11.6381H22.8071Z" fill="#262628"/>
<path id="Vector_6" d="M61.9895 11.6381V2.02588H59.585V13.9739H61.4386H61.9895H66.7826V11.6381H61.9895Z" fill="#0085FE"/>
<path id="Vector_7" d="M29.7996 4.75001C29.4222 4.75001 29.1089 4.61708 28.8626 4.35273C28.6163 4.08838 28.4924 3.76579 28.4924 3.38793C28.4924 3.01007 28.6163 2.67403 28.8626 2.41566C29.1089 2.15579 29.4222 2.02734 29.7996 2.02734C30.1771 2.02734 30.4875 2.15728 30.7294 2.41566C30.9713 2.67553 31.0923 2.99962 31.0923 3.38793C31.0923 3.77624 30.9713 4.08838 30.7294 4.35273C30.4875 4.61708 30.1785 4.75001 29.7996 4.75001Z" fill="#0085FE"/>
<path id="Vector_8" d="M30.997 5.75977H28.5867V13.9741H30.997V5.75977Z" fill="#262628"/>
<path id="Vector_9" d="M40.4943 13.9739L37.4908 9.74581L40.5147 5.75965H37.7574L35.0877 9.55315V2.02588H32.6394V13.9739H35.0877V10.1192L37.6146 13.9739H40.4943Z" fill="#262628"/>
<path id="Vector_10" d="M47.943 7.63506C47.6122 7.04065 47.1575 6.57617 46.5804 6.24013C46.0033 5.90558 45.3359 5.73682 44.5795 5.73682C43.8232 5.73682 43.1033 5.91454 42.4839 6.27149C41.8646 6.62844 41.3735 7.11682 41.0106 7.73812C40.6477 8.35941 40.467 9.06435 40.467 9.85441C40.467 10.6445 40.6507 11.3509 41.0179 11.9782C41.3851 12.6055 41.8923 13.0938 42.5379 13.4448C43.1835 13.7958 43.9223 13.972 44.7515 13.972C45.3927 13.972 45.98 13.8585 46.5163 13.6315C47.0526 13.4045 47.5087 13.064 47.8876 12.6099L46.5644 11.2479C46.3327 11.5182 46.066 11.7213 45.76 11.8557C45.4554 11.9916 45.1144 12.0588 44.7355 12.0588C44.326 12.0588 43.9719 11.9692 43.6716 11.7915C43.3714 11.6138 43.1412 11.3599 42.978 11.0298C42.9241 10.9208 42.8832 10.8013 42.8468 10.6788L48.3277 10.6654C48.37 10.4608 48.3991 10.2786 48.4137 10.1218C48.4297 9.96493 48.437 9.81708 48.437 9.67519C48.437 8.90753 48.2709 8.22649 47.9401 7.63208L47.943 7.63506ZM43.6104 7.9024C43.8888 7.72467 44.2167 7.63506 44.5956 7.63506C44.9526 7.63506 45.2543 7.71422 45.502 7.86954C45.7483 8.02636 45.9348 8.25337 46.0616 8.55058C46.1141 8.67454 46.1549 8.81643 46.1869 8.96727L42.8497 8.97773C42.8818 8.86422 42.9197 8.75669 42.9663 8.65662C43.1179 8.33253 43.3336 8.08162 43.6119 7.9024H43.6104Z" fill="#262628"/>
<path id="Vector_11" d="M55.3502 5.91667V6.57381C55.1433 6.3707 54.9057 6.19894 54.6332 6.06303C54.2179 5.85842 53.753 5.75537 53.2386 5.75537C52.5347 5.75537 51.9066 5.9331 51.3557 6.29005C50.8049 6.64699 50.3677 7.13238 50.0485 7.7492C49.7279 8.36453 49.5676 9.06797 49.5676 9.85654C49.5676 10.6451 49.7279 11.3486 50.0485 11.9639C50.3691 12.5792 50.8049 13.0661 51.3557 13.423C51.9066 13.78 52.5347 13.9577 53.2386 13.9577C53.753 13.9577 54.2208 13.8547 54.6405 13.65C54.9115 13.5171 55.1462 13.3484 55.3487 13.1497V13.7949H57.7125V5.91518H55.3487L55.3502 5.91667ZM53.7268 11.7204C53.4018 11.7204 53.1074 11.6398 52.8451 11.477C52.5828 11.3142 52.3773 11.0932 52.2301 10.8124C52.0829 10.5316 52.0101 10.212 52.0101 9.85654C52.0101 9.50109 52.0858 9.16505 52.2389 8.88427C52.3904 8.60349 52.5959 8.38394 52.8538 8.22712C53.1118 8.07031 53.4076 7.99264 53.7442 7.99264C54.0809 7.99264 54.3767 8.0718 54.6347 8.22712C54.8926 8.38394 55.0923 8.60349 55.2336 8.88427C55.375 9.16505 55.4464 9.48914 55.4464 9.85654C55.4464 10.3972 55.289 10.8423 54.9742 11.1947C54.6594 11.5457 54.2441 11.7219 53.7297 11.7219L53.7268 11.7204Z" fill="#262628"/>
<path id="Vector_12" d="M71.3804 13.9735C70.592 13.9735 69.8808 13.7928 69.2455 13.4298C68.6101 13.0684 68.1088 12.5741 67.7401 11.9468C67.3728 11.3195 67.1892 10.6176 67.1892 9.83945C67.1892 9.06133 67.3728 8.36387 67.7401 7.74854C68.1073 7.13172 68.6072 6.64335 69.2367 6.28192C69.8663 5.92049 70.5818 5.73828 71.3789 5.73828C72.1761 5.73828 72.8916 5.91601 73.5212 6.27296C74.1522 6.6299 74.6506 7.11828 75.0178 7.73958C75.3851 8.36088 75.5687 9.06133 75.5687 9.83945C75.5687 10.6176 75.3851 11.321 75.0178 11.9468C74.6506 12.5741 74.1507 13.0684 73.5212 13.4298C72.8916 13.7928 72.1761 13.9735 71.3789 13.9735H71.3804ZM71.3804 11.7198C71.7272 11.7198 72.0318 11.6421 72.2941 11.4853C72.5564 11.3285 72.759 11.1074 72.9004 10.8207C73.0417 10.5339 73.1131 10.2069 73.1131 9.83945C73.1131 9.47205 73.0388 9.15094 72.8931 8.87464C72.7459 8.59984 72.5433 8.38328 72.2868 8.22646C72.0289 8.06964 71.7272 7.99198 71.3804 7.99198C71.0336 7.99198 70.745 8.07114 70.4827 8.22646C70.2204 8.38328 70.0149 8.60283 69.8677 8.88361C69.7205 9.16439 69.6477 9.48848 69.6477 9.85588C69.6477 10.2233 69.7205 10.5339 69.8677 10.8207C70.0149 11.1074 70.2189 11.3285 70.4827 11.4853C70.745 11.6421 71.0452 11.7198 71.3804 11.7198Z" fill="#0085FE"/>
<path id="Vector_13" d="M80.4721 13.9735C79.6837 13.9735 78.9696 13.7957 78.3299 13.4388C77.6887 13.0819 77.1845 12.5905 76.8172 11.9632C76.45 11.3359 76.2664 10.634 76.2664 9.85588C76.2664 9.07776 76.4529 8.36237 76.826 7.73958C77.199 7.11828 77.7062 6.62841 78.3459 6.27296C78.9871 5.91601 79.7056 5.73828 80.5042 5.73828C81.1031 5.73828 81.6511 5.84432 82.1509 6.0549C82.6493 6.26549 83.0938 6.58211 83.4829 7.00328L81.9382 8.59237C81.7589 8.38776 81.552 8.23542 81.3159 8.13835C81.0798 8.04127 80.8088 7.99198 80.5042 7.99198C80.1573 7.99198 79.8499 8.07114 79.5817 8.22646C79.3136 8.38328 79.1037 8.59984 78.9522 8.87465C78.7991 9.15094 78.7234 9.47205 78.7234 9.83945C78.7234 10.2069 78.7991 10.5309 78.9522 10.8117C79.1037 11.0925 79.3165 11.315 79.5905 11.4763C79.863 11.6391 80.1675 11.7198 80.5042 11.7198C80.819 11.7198 81.1002 11.663 81.3465 11.5495C81.5928 11.436 81.8056 11.2762 81.9848 11.0716L83.5135 12.6607C83.1142 13.0923 82.6624 13.4209 82.1582 13.6419C81.654 13.863 81.0915 13.975 80.4721 13.975V13.9735Z" fill="#0085FE"/>
<path id="Vector_14" d="M89.7057 5.91667V6.57381C89.4987 6.3707 89.2612 6.19894 88.9887 6.06303C88.5733 5.85842 88.1085 5.75537 87.594 5.75537C86.8902 5.75537 86.2621 5.9331 85.7112 6.29005C85.1603 6.64699 84.7232 7.13238 84.404 7.7492C84.0834 8.36453 83.9231 9.06797 83.9231 9.85654C83.9231 10.6451 84.0834 11.3486 84.404 11.9639C84.7246 12.5792 85.1603 13.0661 85.7112 13.423C86.2621 13.78 86.8902 13.9577 87.594 13.9577C88.1085 13.9577 88.5763 13.8547 88.996 13.65C89.267 13.5171 89.5016 13.3484 89.7042 13.1497V13.7949H92.0679V5.91518H89.7042L89.7057 5.91667ZM88.0822 11.7204C87.7572 11.7204 87.4629 11.6398 87.2006 11.477C86.9382 11.3142 86.7328 11.0932 86.5856 10.8124C86.4384 10.5316 86.3655 10.212 86.3655 9.85654C86.3655 9.50109 86.4413 9.16505 86.5943 8.88427C86.7459 8.60349 86.9514 8.38394 87.2093 8.22712C87.4672 8.07031 87.7631 7.99264 88.0997 7.99264C88.4363 7.99264 88.7322 8.0718 88.9901 8.22712C89.2481 8.38394 89.4477 8.60349 89.5891 8.88427C89.7304 9.16505 89.8018 9.48914 89.8018 9.85654C89.8018 10.3972 89.6445 10.8423 89.3297 11.1947C89.0149 11.5457 88.5996 11.7219 88.0851 11.7219L88.0822 11.7204Z" fill="#0085FE"/>
<path id="Vector_15" d="M93.7717 13.9739V2.02588H96.1821V13.9739H93.7717Z" fill="#0085FE"/>
</g>
</g>
<defs>
<clipPath id="clip0_358_480">
<rect width="96.1818" height="14.9351" fill="white" transform="translate(0 0.532227)"/>
</clipPath>
</defs>
</svg>
