<svg width="10" height="69" viewBox="0 0 10 69" fill="none" xmlns="http://www.w3.org/2000/svg">
<g id="Group 1171279700">
<line id="Line 107" x1="4.5" y1="8" x2="4.5" y2="59" stroke="#C4C4C4" stroke-dasharray="3 3"/>
<g id="Group 1171279699">
<g id="Group 39">
<circle id="Ellipse 17" cx="5" cy="5" r="4.75" fill="white" stroke="#C4C4C4" stroke-width="0.5"/>
</g>
<g id="Group 1171279629">
<circle id="Ellipse 17_2" cx="5" cy="5" r="3" fill="#4187FF"/>
</g>
</g>
<path id="Vector" d="M10 60.989C10 60.4652 9.88361 59.9465 9.65746 59.4625C9.43131 58.9785 9.09984 58.5388 8.68198 58.1684C8.26412 57.7979 7.76804 57.5041 7.22208 57.3036C6.67611 57.1032 6.09095 57 5.5 57C4.90905 57 4.32389 57.1032 3.77792 57.3036C3.23196 57.5041 2.73588 57.7979 2.31802 58.1684C1.90016 58.5388 1.56869 58.9785 1.34254 59.4625C1.1164 59.9465 1 60.4652 1 60.989C1 61.7794 1.26357 62.5145 1.71036 63.1345H1.70521C3.22236 65.2402 5.5 68.3972 5.5 68.3972L9.29479 63.1345H9.29029C9.75341 62.4942 9.99971 61.7496 10 60.989ZM5.5 62.6986C4.98851 62.6986 4.49797 62.5185 4.13629 62.1979C3.77462 61.8773 3.57143 61.4424 3.57143 60.989C3.57143 60.5356 3.77462 60.1008 4.13629 59.7802C4.49797 59.4596 4.98851 59.2794 5.5 59.2794C6.01149 59.2794 6.50203 59.4596 6.86371 59.7802C7.22538 60.1008 7.42857 60.5356 7.42857 60.989C7.42857 61.4424 7.22538 61.8773 6.86371 62.1979C6.50203 62.5185 6.01149 62.6986 5.5 62.6986Z" fill="#F36340"/>
</g>
</svg>
