<svg width="52" height="64" viewBox="0 0 52 64" fill="none" xmlns="http://www.w3.org/2000/svg">
<g filter="url(#filter0_d_588_1080)">
<path d="M23.5608 0.133196C29.436 -0.511553 35.3269 1.20158 39.9514 4.89978C47.2158 10.7579 49.8483 20.6963 46.6727 29.4477C44.2892 36.0113 40.2953 41.6025 35.7109 46.7409C32.8649 49.9464 29.7272 52.9113 26.6985 56C20.5607 50.7568 15.094 45.3371 10.6922 38.9571C7.73473 34.6671 4.79861 29.8147 4.15352 24.5381C3.81096 21.6515 4.04304 18.7252 4.83627 15.9296C5.62949 13.1339 6.96802 10.5247 8.77399 8.25365C10.58 5.98263 12.8173 4.09518 15.3558 2.70108C17.8944 1.30699 20.6835 0.434101 23.5608 0.133196Z" fill="black"/>
<path d="M23.6388 0.879138L23.6426 0.87872C29.3197 0.255719 35.0123 1.91079 39.4819 5.48469C46.489 11.1363 49.0368 20.7337 45.9677 29.1917C43.6293 35.6311 39.7025 41.1404 35.1512 46.2416L35.15 46.243C33.1863 48.4548 31.0923 50.5412 28.9734 52.6526C28.2023 53.421 27.4279 54.1926 26.6553 54.9748C20.7594 49.8952 15.5335 44.6534 11.3097 38.5314C8.35555 34.2463 5.51935 29.5266 4.89813 24.4484C4.56746 21.6605 4.7917 18.8343 5.55779 16.1343C6.32399 13.4339 7.61686 10.9137 9.36101 8.72046C11.1051 6.52718 13.2657 4.70457 15.7169 3.35848C18.168 2.01239 20.8609 1.16964 23.6388 0.879138Z" stroke="white" stroke-width="1.5"/>
</g>
<path d="M9.99887 27V18.5138H15.5928V19.9724H11.7599V22.0276H15.2199V23.482H11.7599V27H9.99887ZM16.5709 27V20.6354H18.2533V21.7417H18.3196C18.5516 20.9586 19.14 20.5442 19.8527 20.5442C20.0268 20.5442 20.2505 20.5691 20.408 20.5981V22.1478C20.2464 22.0981 19.9107 22.0525 19.6663 22.0525C18.8831 22.0525 18.303 22.5994 18.303 23.3826V27H16.5709ZM21.2116 27V20.6354H22.9436V27H21.2116ZM21.1328 18.9199C21.1328 18.4351 21.5596 18.0373 22.0817 18.0373C22.5997 18.0373 23.0265 18.4351 23.0265 18.9199C23.0265 19.4088 22.5997 19.8025 22.0817 19.8025C21.5596 19.8025 21.1328 19.4088 21.1328 18.9199ZM27.1583 27.1243C25.2066 27.1243 24.0091 25.8646 24.0091 23.8467C24.0091 21.8826 25.2232 20.5525 27.0878 20.5525C28.7577 20.5525 30.0713 21.6091 30.0713 23.7804V24.2652H25.7246C25.7246 25.2307 26.2964 25.8232 27.1873 25.8232C27.784 25.8232 28.2025 25.5663 28.3807 25.1892H30.0298C29.7771 26.3619 28.7246 27.1243 27.1583 27.1243ZM25.7246 23.1796H28.4345C28.4304 22.4088 27.8917 21.8494 27.1169 21.8494C26.3213 21.8494 25.766 22.4503 25.7246 23.1796ZM31.0959 27V25.9558L34.2285 22.0691V22.0235H31.2037V20.6354H36.3252V21.7707L33.3749 25.5663V25.6119H36.4288V27H31.0959ZM40.377 27.1243C38.4254 27.1243 37.2279 25.8646 37.2279 23.8467C37.2279 21.8826 38.442 20.5525 40.3066 20.5525C41.9765 20.5525 43.29 21.6091 43.29 23.7804V24.2652H38.9433C38.9433 25.2307 39.5152 25.8232 40.406 25.8232C41.0027 25.8232 41.4212 25.5663 41.5994 25.1892H43.2486C42.9958 26.3619 41.9433 27.1243 40.377 27.1243ZM38.9433 23.1796H41.6533C41.6491 22.4088 41.1105 21.8494 40.3356 21.8494C39.54 21.8494 38.9848 22.4503 38.9433 23.1796Z" fill="white"/>
<defs>
<filter id="filter0_d_588_1080" x="0" y="0" width="52" height="64" filterUnits="userSpaceOnUse" color-interpolation-filters="sRGB">
<feFlood flood-opacity="0" result="BackgroundImageFix"/>
<feColorMatrix in="SourceAlpha" type="matrix" values="0 0 0 0 0 0 0 0 0 0 0 0 0 0 0 0 0 0 127 0" result="hardAlpha"/>
<feOffset dy="4"/>
<feGaussianBlur stdDeviation="2"/>
<feComposite in2="hardAlpha" operator="out"/>
<feColorMatrix type="matrix" values="0 0 0 0 0 0 0 0 0 0 0 0 0 0 0 0 0 0 0.2 0"/>
<feBlend mode="normal" in2="BackgroundImageFix" result="effect1_dropShadow_588_1080"/>
<feBlend mode="normal" in="SourceGraphic" in2="effect1_dropShadow_588_1080" result="shape"/>
</filter>
</defs>
</svg>
