<svg width="48" height="60" viewBox="0 0 48 60" fill="none" xmlns="http://www.w3.org/2000/svg">
<path d="M21.3391 0.14271C27.7484 -0.548093 34.1748 1.28741 39.2197 5.24977C47.1445 11.5263 50.0164 22.1746 46.552 31.5511C43.9518 38.5835 39.5948 44.5741 34.5937 50.0795C31.4889 53.514 28.066 56.6906 24.762 60C18.0662 54.3822 12.1025 48.5755 7.30057 41.7397C4.07425 37.1434 0.871209 31.9444 0.167472 26.2909C-0.206231 23.198 0.0469543 20.0628 0.912291 17.0674C1.77763 14.0721 3.23784 11.2764 5.20799 8.84319C7.17813 6.40996 9.61886 4.38769 12.3882 2.89402C15.1575 1.40035 18.2002 0.465108 21.3391 0.14271Z" fill="black"/>
<path d="M24 44C35.0457 44 44 35.0457 44 24C44 12.9543 35.0457 4 24 4C12.9543 4 4 12.9543 4 24C4 35.0457 12.9543 44 24 44Z" fill="white"/>
<path d="M7.99887 28V19.5138H13.5928V20.9724H9.75992V23.0276H13.2199V24.482H9.75992V28H7.99887ZM14.5709 28V21.6354H16.2533V22.7417H16.3196C16.5516 21.9586 17.14 21.5442 17.8527 21.5442C18.0268 21.5442 18.2505 21.5691 18.408 21.5981V23.1478C18.2464 23.0981 17.9107 23.0525 17.6663 23.0525C16.8831 23.0525 16.303 23.5994 16.303 24.3826V28H14.5709ZM19.2116 28V21.6354H20.9436V28H19.2116ZM19.1328 19.9199C19.1328 19.4351 19.5596 19.0373 20.0817 19.0373C20.5997 19.0373 21.0265 19.4351 21.0265 19.9199C21.0265 20.4088 20.5997 20.8025 20.0817 20.8025C19.5596 20.8025 19.1328 20.4088 19.1328 19.9199ZM25.1583 28.1243C23.2066 28.1243 22.0091 26.8646 22.0091 24.8467C22.0091 22.8826 23.2232 21.5525 25.0878 21.5525C26.7577 21.5525 28.0713 22.6091 28.0713 24.7804V25.2652H23.7246C23.7246 26.2307 24.2964 26.8232 25.1873 26.8232C25.784 26.8232 26.2025 26.5663 26.3807 26.1892H28.0298C27.7771 27.3619 26.7246 28.1243 25.1583 28.1243ZM23.7246 24.1796H26.4345C26.4304 23.4088 25.8917 22.8494 25.1169 22.8494C24.3213 22.8494 23.766 23.4503 23.7246 24.1796ZM29.0959 28V26.9558L32.2285 23.0691V23.0235H29.2037V21.6354H34.3252V22.7707L31.3749 26.5663V26.6119H34.4288V28H29.0959ZM38.377 28.1243C36.4254 28.1243 35.2279 26.8646 35.2279 24.8467C35.2279 22.8826 36.442 21.5525 38.3066 21.5525C39.9765 21.5525 41.29 22.6091 41.29 24.7804V25.2652H36.9433C36.9433 26.2307 37.5152 26.8232 38.406 26.8232C39.0027 26.8232 39.4212 26.5663 39.5994 26.1892H41.2486C40.9958 27.3619 39.9433 28.1243 38.377 28.1243ZM36.9433 24.1796H39.6533C39.6491 23.4088 39.1105 22.8494 38.3356 22.8494C37.54 22.8494 36.9848 23.4503 36.9433 24.1796Z" fill="black"/>
</svg>
