<svg width="48" height="60" viewBox="0 0 48 60" fill="none" xmlns="http://www.w3.org/2000/svg">
<path d="M21.4157 0.888794L21.4195 0.888391C27.6348 0.218498 33.8654 1.99853 38.7553 5.83873C46.4209 11.9109 49.202 22.2147 45.8485 31.2912C43.2947 38.1981 39.0064 44.1065 34.0385 49.5752L34.0373 49.5766C31.8938 51.9478 29.6074 54.1854 27.2952 56.4482C26.438 57.287 25.5773 58.1294 24.719 58.9832C18.2628 53.5247 12.5387 47.8917 7.91428 41.3086C4.69089 36.7164 1.59094 31.6515 0.911892 26.1995C0.550517 23.2072 0.795543 20.1738 1.63283 17.2756C2.47024 14.3769 3.8835 11.6709 5.79088 9.31515C7.69827 6.95941 10.0618 5.00094 12.7442 3.55412C15.4267 2.1073 18.3744 1.20116 21.4157 0.888794Z" fill="#0085FE" stroke="#0067C4" stroke-width="1.5"/>
<path d="M24 44C35.0457 44 44 35.0457 44 24C44 12.9543 35.0457 4 24 4C12.9543 4 4 12.9543 4 24C4 35.0457 12.9543 44 24 44Z" fill="white"/>
<path d="M17.4682 20.9724V19.5138H24.4171V20.9724H21.819V28H20.0704V20.9724H17.4682ZM27.3756 28.1243C25.453 28.1243 24.2513 26.8025 24.2513 24.8425C24.2513 22.8702 25.453 21.5525 27.3756 21.5525C29.3024 21.5525 30.4999 22.8702 30.4999 24.8425C30.4999 26.8025 29.3024 28.1243 27.3756 28.1243ZM26.0124 24.8301C26.0124 25.9489 26.4806 26.7776 27.388 26.7776C28.2748 26.7776 28.7389 25.9489 28.7389 24.8301C28.7389 23.7155 28.2748 22.8785 27.388 22.8785C26.4806 22.8785 26.0124 23.7155 26.0124 24.8301Z" fill="#0085FE"/>
</svg>
