<svg width="48" height="60" viewBox="0 0 48 60" fill="none" xmlns="http://www.w3.org/2000/svg">
<path d="M21.4157 0.888794L21.4195 0.888391C27.6348 0.218498 33.8654 1.99853 38.7553 5.83873C46.4209 11.9109 49.202 22.2147 45.8485 31.2912C43.2947 38.1981 39.0064 44.1065 34.0385 49.5752L34.0373 49.5766C31.8938 51.9478 29.6074 54.1854 27.2952 56.4482C26.438 57.287 25.5773 58.1294 24.719 58.9832C18.2628 53.5247 12.5387 47.8917 7.91428 41.3086C4.69089 36.7164 1.59094 31.6515 0.911892 26.1995C0.550517 23.2072 0.795543 20.1738 1.63283 17.2756C2.47024 14.3769 3.8835 11.6709 5.79088 9.31515C7.69827 6.95941 10.0618 5.00094 12.7442 3.55412C15.4267 2.1073 18.3744 1.20116 21.4157 0.888794Z" fill="#F36340" stroke="#F04116" stroke-width="1.5"/>
<path d="M24 44C35.0457 44 44 35.0457 44 24C44 12.9543 35.0457 4 24 4C12.9543 4 4 12.9543 4 24C4 35.0457 12.9543 44 24 44Z" fill="white"/>
<path d="M10.8934 28V19.5138H16.4873V20.9724H12.6544V23.0276H16.1144V24.482H12.6544V28H10.8934ZM17.4655 28V21.6354H19.1478V22.7417H19.2141C19.4461 21.9586 20.0345 21.5442 20.7472 21.5442C20.9213 21.5442 21.145 21.5691 21.3025 21.5981V23.1478C21.1409 23.0981 20.8053 23.0525 20.5608 23.0525C19.7776 23.0525 19.1975 23.5994 19.1975 24.3826V28H17.4655ZM24.7701 28.1243C22.8475 28.1243 21.6458 26.8025 21.6458 24.8425C21.6458 22.8702 22.8475 21.5525 24.7701 21.5525C26.6969 21.5525 27.8945 22.8702 27.8945 24.8425C27.8945 26.8025 26.6969 28.1243 24.7701 28.1243ZM23.4069 24.8301C23.4069 25.9489 23.8751 26.7776 24.7826 26.7776C25.6693 26.7776 26.1334 25.9489 26.1334 24.8301C26.1334 23.7155 25.6693 22.8785 24.7826 22.8785C23.8751 22.8785 23.4069 23.7155 23.4069 24.8301ZM28.9499 28V21.6354H30.6032V22.7541H30.6778C30.9429 22.0083 31.5894 21.5525 32.4512 21.5525C33.3214 21.5525 33.9678 22.0166 34.175 22.7541H34.2413C34.5065 22.0249 35.2275 21.5525 36.1557 21.5525C37.3407 21.5525 38.1653 22.3356 38.1653 23.7196V28H36.4333V24.0552C36.4333 23.3384 36.0023 22.9862 35.4347 22.9862C34.7841 22.9862 34.3988 23.4378 34.3988 24.105V28H32.7164V24.0138C32.7164 23.3881 32.3228 22.9862 31.7344 22.9862C31.1377 22.9862 30.6819 23.4586 30.6819 24.1754V28H28.9499Z" fill="#F36340"/>
</svg>
