<svg width="36" height="59" viewBox="0 0 36 59" fill="none" xmlns="http://www.w3.org/2000/svg">
<circle cx="18" cy="18" r="17.25" fill="#F36340" stroke="#F04116" stroke-width="1.5"/>
<g filter="url(#filter0_d_588_1114)">
<line x1="18.25" y1="35" x2="18.25" y2="51" stroke="#F04116" stroke-width="1.5"/>
</g>
<path d="M4.8934 22V13.5138H10.4873V14.9724H6.65445V17.0276H10.1144V18.482H6.65445V22H4.8934ZM11.4655 22V15.6354H13.1478V16.7417H13.2141C13.4461 15.9586 14.0345 15.5442 14.7472 15.5442C14.9213 15.5442 15.145 15.5691 15.3025 15.5981V17.1478C15.1409 17.0981 14.8053 17.0525 14.5608 17.0525C13.7776 17.0525 13.1975 17.5994 13.1975 18.3826V22H11.4655ZM18.7701 22.1243C16.8475 22.1243 15.6458 20.8025 15.6458 18.8425C15.6458 16.8702 16.8475 15.5525 18.7701 15.5525C20.6969 15.5525 21.8945 16.8702 21.8945 18.8425C21.8945 20.8025 20.6969 22.1243 18.7701 22.1243ZM17.4069 18.8301C17.4069 19.9489 17.8751 20.7776 18.7826 20.7776C19.6693 20.7776 20.1334 19.9489 20.1334 18.8301C20.1334 17.7155 19.6693 16.8785 18.7826 16.8785C17.8751 16.8785 17.4069 17.7155 17.4069 18.8301ZM22.9499 22V15.6354H24.6032V16.7541H24.6778C24.9429 16.0083 25.5894 15.5525 26.4512 15.5525C27.3214 15.5525 27.9678 16.0166 28.175 16.7541H28.2413C28.5065 16.0249 29.2275 15.5525 30.1557 15.5525C31.3407 15.5525 32.1653 16.3356 32.1653 17.7196V22H30.4333V18.0552C30.4333 17.3384 30.0023 16.9862 29.4347 16.9862C28.7841 16.9862 28.3988 17.4378 28.3988 18.105V22H26.7164V18.0138C26.7164 17.3881 26.3228 16.9862 25.7344 16.9862C25.1377 16.9862 24.6819 17.4586 24.6819 18.1754V22H22.9499Z" fill="white"/>
<defs>
<filter id="filter0_d_588_1114" x="13.5" y="35" width="9.5" height="24" filterUnits="userSpaceOnUse" color-interpolation-filters="sRGB">
<feFlood flood-opacity="0" result="BackgroundImageFix"/>
<feColorMatrix in="SourceAlpha" type="matrix" values="0 0 0 0 0 0 0 0 0 0 0 0 0 0 0 0 0 0 127 0" result="hardAlpha"/>
<feOffset dy="4"/>
<feGaussianBlur stdDeviation="2"/>
<feComposite in2="hardAlpha" operator="out"/>
<feColorMatrix type="matrix" values="0 0 0 0 0 0 0 0 0 0 0 0 0 0 0 0 0 0 0.25 0"/>
<feBlend mode="normal" in2="BackgroundImageFix" result="effect1_dropShadow_588_1114"/>
<feBlend mode="normal" in="SourceGraphic" in2="effect1_dropShadow_588_1114" result="shape"/>
</filter>
</defs>
</svg>
